<?xml version="1.0" encoding="UTF-8" standalone="no"?>
<!-- Created with Inkscape (http://www.inkscape.org/) -->

<svg
   xmlns:dc="http://purl.org/dc/elements/1.1/"
   xmlns:cc="http://creativecommons.org/ns#"
   xmlns:rdf="http://www.w3.org/1999/02/22-rdf-syntax-ns#"
   xmlns:svg="http://www.w3.org/2000/svg"
   xmlns="http://www.w3.org/2000/svg"
   xmlns:sodipodi="http://sodipodi.sourceforge.net/DTD/sodipodi-0.dtd"
   xmlns:inkscape="http://www.inkscape.org/namespaces/inkscape"
   width="700"
   height="700"
   id="svg2"
   version="1.1"
   inkscape:version="0.48.4 r9939"
   sodipodi:docname="lugparana.svg">
  <defs
     id="defs4" />
  <sodipodi:namedview
     id="base"
     pagecolor="#ffffff"
     bordercolor="#666666"
     borderopacity="1.0"
     inkscape:pageopacity="0.0"
     inkscape:pageshadow="2"
     inkscape:zoom="1.159799"
     inkscape:cx="347.79042"
     inkscape:cy="347.03476"
     inkscape:document-units="px"
     inkscape:current-layer="g3015"
     showgrid="false"
     inkscape:window-width="1920"
     inkscape:window-height="1016"
     inkscape:window-x="0"
     inkscape:window-y="27"
     inkscape:window-maximized="1" />
  <metadata
     id="metadata7">
    <rdf:RDF>
      <cc:Work
         rdf:about="">
        <dc:format>image/svg+xml</dc:format>
        <dc:type
           rdf:resource="http://purl.org/dc/dcmitype/StillImage" />
        <dc:title />
      </cc:Work>
    </rdf:RDF>
  </metadata>
  <g
     inkscape:label="Capa 1"
     inkscape:groupmode="layer"
     id="layer1"
     transform="translate(0,-352.36218)">
    <g
       id="g3007"
       transform="translate(-231.42857,39.999997)" />
    <g
       id="g3095">
      <g
         id="g3083">
        <g
           id="g3052">
          <g
             id="g3015"
             transform="matrix(1.3329538,0,0,1.3329538,-87.15809,414.32511)">
            <g
               transform="translate(912.082,58.529326)"
               id="text2995"
               style="font-size:40px;font-style:normal;font-variant:normal;font-weight:normal;font-stretch:normal;text-align:end;line-height:80.00000119%;letter-spacing:0px;word-spacing:0px;writing-mode:lr-tb;text-anchor:end;fill:#000000;fill-opacity:1;stroke:none;font-family:Sans;-inkscape-font-specification:Sans">
              <path
                 inkscape:connector-curvature="0"
                 id="path3002"
                 style="font-size:125px;font-weight:bold;letter-spacing:-7.48000097px;fill:#f69e19;fill-opacity:1;stroke:#9a7032;stroke-width:3.9000001;stroke-miterlimit:4;stroke-opacity:1;stroke-dasharray:none;font-family:Comfortaa;-inkscape-font-specification:Comfortaa Bold"
                 d="m -556.03457,66.011047 c 0,-1.790271 0.6307,-3.316149 1.89209,-4.577636 1.26139,-1.261297 2.78727,-1.891993 4.57764,-1.89209 1.79035,9.7e-5 3.31623,0.630793 4.57764,1.89209 1.26137,1.261487 1.89207,2.787365 1.89209,4.577636 l 0,78.247073 45.28808,0 c 1.7903,1e-5 3.31618,0.63071 4.57764,1.89209 1.26132,1.2614 1.89202,2.78728 1.89209,4.57763 -7e-5,1.79037 -0.63077,3.31625 -1.89209,4.57764 -1.26146,1.26139 -2.78734,1.89209 -4.57764,1.89209 l -51.75781,0 c -0.93588,0 -1.79037,-0.16276 -2.56348,-0.48828 -0.77312,-0.32552 -1.46485,-0.77311 -2.07519,-1.34277 -0.56967,-0.61035 -1.01726,-1.30208 -1.34277,-2.0752 -0.32553,-0.77311 -0.48829,-1.6276 -0.48829,-2.56348 l 0,-84.716793" />
              <path
                 inkscape:connector-curvature="0"
                 id="path3004"
                 style="font-size:125px;font-weight:bold;letter-spacing:-7.48000097px;fill:#f69e19;fill-opacity:1;stroke:#9a7032;stroke-width:3.9000001;stroke-miterlimit:4;stroke-opacity:1;stroke-dasharray:none;font-family:Comfortaa;-inkscape-font-specification:Comfortaa Bold"
                 d="m -474.1547,66.011047 0,56.457523 c -2e-5,2.97041 0.56964,5.77802 1.70898,8.42285 1.1393,2.64488 2.68553,4.96421 4.63867,6.95801 1.9531,1.95314 4.25209,3.51971 6.89698,4.6997 2.64482,1.13934 5.47278,1.709 8.48388,1.70899 3.01103,1e-5 5.83899,-0.56965 8.48389,-1.70899 2.64481,-1.1393 4.9438,-2.70587 6.89697,-4.6997 1.99376,-1.9938 3.56033,-4.29279 4.69971,-6.89698 1.13926,-2.64482 1.70892,-5.47278 1.70898,-8.48388 l 0,-56.457523 c -6e-5,-1.790271 0.63064,-3.316149 1.89209,-4.577636 1.26133,-1.261297 2.78721,-1.891993 4.57764,-1.89209 1.7903,9.7e-5 3.31617,0.630793 4.57764,1.89209 1.26132,1.261487 1.89201,2.787365 1.89209,4.577636 l 0,56.457523 c -8e-5,3.17386 -0.42732,6.22561 -1.28174,9.15527 -0.81387,2.92971 -1.97354,5.69663 -3.479,8.30078 -1.50561,2.56349 -3.31631,4.90317 -5.43213,7.01904 -2.11595,2.1159 -4.47597,3.94695 -7.08008,5.49317 -2.56353,1.50554 -5.33046,2.68555 -8.30078,3.54004 -2.92974,0.8138 -5.98149,1.2207 -9.15528,1.2207 -9.60289,0 -17.76125,-3.39762 -24.47509,-10.19287 -6.79526,-6.79523 -10.19288,-14.97393 -10.19288,-24.53613 l 0,-56.457523 c 0,-1.790271 0.6307,-3.316149 1.89209,-4.577636 1.26139,-1.261297 2.78727,-1.891993 4.57764,-1.89209 1.79035,9.7e-5 3.31623,0.630793 4.57764,1.89209 1.26137,1.261487 1.89207,2.787365 1.89209,4.577636" />
              <path
                 inkscape:connector-curvature="0"
                 id="path3006"
                 style="font-size:125px;font-weight:bold;letter-spacing:-7.48000097px;fill:#f69e19;fill-opacity:1;stroke:#9a7032;stroke-width:3.9000001;stroke-miterlimit:4;stroke-opacity:1;stroke-dasharray:none;font-family:Comfortaa;-inkscape-font-specification:Comfortaa Bold"
                 d="m -330.78412,141.69464 c -8e-5,1.709 -0.67147,3.25522 -2.01416,4.63867 -9.07396,7.24285 -19.30752,10.86426 -30.70068,10.86426 -13.50915,0 -25.02444,-4.76074 -34.5459,-14.28223 -9.52149,-9.52146 -14.28223,-21.03674 -14.28222,-34.54589 -10e-6,-13.468366 4.76073,-24.963309 14.28222,-34.484867 9.56215,-9.562082 21.07744,-14.343165 34.5459,-14.343262 11.55592,9.7e-5 21.99293,3.804618 31.31104,11.413574 1.13923,1.058028 1.70889,2.543215 1.70898,4.455566 -9e-5,0.935954 -0.16285,1.790445 -0.48828,2.563477 -0.32561,0.77319 -0.79354,1.464921 -1.40381,2.075195 -0.56975,0.569738 -1.26148,1.017329 -2.0752,1.342774 -0.77319,0.325596 -1.60734,0.488356 -2.50244,0.488281 -1.66837,7.5e-5 -3.15356,-0.610276 -4.45556,-1.831055 -3.09252,-2.441326 -6.51049,-4.313069 -10.25391,-5.615234 -3.70286,-1.301999 -7.6498,-1.95304 -11.84082,-1.953125 -9.92843,8.5e-5 -18.41231,3.519775 -25.45166,10.559082 -6.95803,6.958075 -10.43703,15.401263 -10.43701,25.329594 -2e-5,9.96911 3.47898,18.43264 10.43701,25.39062 6.99866,6.99872 15.48254,10.49806 25.45166,10.49805 7.36485,1e-5 13.95664,-1.93277 19.77539,-5.79834 l 0,-18.9209 -16.8457,0 c -1.83111,4e-5 -3.37733,-0.61031 -4.63867,-1.83106 -1.22076,-1.26135 -1.83111,-2.80757 -1.83106,-4.63867 -5e-5,-0.89513 0.16271,-1.72928 0.48828,-2.50244 0.32547,-0.81375 0.77306,-1.50548 1.34278,-2.07519 0.6103,-0.61031 1.30203,-1.07824 2.07519,-1.40381 0.77306,-0.32547 1.62755,-0.48823 2.56348,-0.48828 l 23.37646,0 c 0.85441,5e-5 1.66822,0.18315 2.44141,0.54931 0.77303,0.32557 1.44441,0.79351 2.01416,1.40381 0.61027,0.56971 1.0782,1.26144 1.40381,2.0752 0.36612,0.77315 0.54923,1.58696 0.54931,2.4414 l 0,28.62549" />
              <path
                 inkscape:connector-curvature="0"
                 id="path3008"
                 style="font-weight:bold;fill:#9d9d9c;fill-opacity:1;stroke:#585858;stroke-width:1.79999995;stroke-miterlimit:3.0999999;stroke-opacity:1;stroke-dasharray:none;font-family:Comfortaa;-inkscape-font-specification:Comfortaa"
                 d="m -469.98627,174.85977 0,12.42188 3.94532,0 c 0.84634,10e-6 1.64061,-0.16275 2.38281,-0.48829 0.75519,-0.3255 1.41274,-0.76821 1.97265,-1.32812 0.57291,-0.55988 1.02212,-1.21743 1.34766,-1.97266 0.33853,-0.75519 0.5078,-1.56248 0.50781,-2.42187 -1e-5,-0.87238 -0.16928,-1.68618 -0.50781,-2.44141 -0.32554,-0.75518 -0.77475,-1.41273 -1.34766,-1.97265 -0.55991,-0.55987 -1.21746,-0.99607 -1.97265,-1.3086 -0.75522,-0.32549 -1.54949,-0.48825 -2.38281,-0.48828 l -3.94532,0 m -4.14062,25.03906 0,-27.10937 c 0,-0.28643 0.0521,-0.55336 0.15625,-0.80078 0.10416,-0.26039 0.24739,-0.48174 0.42969,-0.66407 0.19531,-0.19528 0.41666,-0.34502 0.66406,-0.44921 0.24739,-0.10414 0.52083,-0.15622 0.82031,-0.15625 l 6.01563,0 c 0.93748,3e-5 1.84243,0.12372 2.71484,0.37109 0.8854,0.24743 1.71222,0.59899 2.48047,1.05469 0.76821,0.45575 1.47134,1.00263 2.10937,1.64062 0.63801,0.62503 1.17837,1.32164 1.6211,2.08985 0.45571,0.76825 0.80727,1.59507 1.05468,2.48046 0.2604,0.87242 0.39061,1.77737 0.39063,2.71485 -2e-5,2.83856 -1.02216,5.27996 -3.06641,7.32422 -2.01824,2.01824 -4.45313,3.02735 -7.30468,3.02734 l -3.94532,0 0,8.47656 c 0,0.57292 -0.20183,1.0612 -0.60547,1.46485 -0.40365,0.40364 -0.89193,0.60547 -1.46484,0.60547 -0.57292,0 -1.0612,-0.20183 -1.46484,-0.60547 -0.40365,-0.40365 -0.60547,-0.89193 -0.60547,-1.46485" />
              <path
                 inkscape:connector-curvature="0"
                 id="path3010"
                 style="font-weight:bold;fill:#9d9d9c;fill-opacity:1;stroke:#585858;stroke-width:1.79999995;stroke-miterlimit:3.0999999;stroke-opacity:1;stroke-dasharray:none;font-family:Comfortaa;-inkscape-font-specification:Comfortaa"
                 d="m -441.97845,184.17618 c -0.96356,1e-5 -1.86199,0.18231 -2.69532,0.54687 -0.83334,0.3646 -1.55599,0.85939 -2.16797,1.48438 -0.61198,0.61199 -1.10026,1.33465 -1.46484,2.16797 -0.35157,0.83334 -0.52735,1.71876 -0.52734,2.65625 -1e-5,0.93751 0.17577,1.82292 0.52734,2.65625 0.36458,0.83334 0.85286,1.5625 1.46484,2.1875 0.61198,0.61198 1.33463,1.10026 2.16797,1.46484 0.83333,0.36459 1.73176,0.54688 2.69532,0.54687 0.9505,1e-5 1.84243,-0.18228 2.67578,-0.54687 0.83331,-0.36458 1.55597,-0.85937 2.16797,-1.48438 0.62498,-0.62499 1.11326,-1.34764 1.46484,-2.16796 0.36456,-0.83333 0.54685,-1.71874 0.54687,-2.65625 -2e-5,-0.93749 -0.18231,-1.8164 -0.54687,-2.63672 -0.35158,-0.83332 -0.83986,-1.56249 -1.46484,-2.1875 -0.612,-0.62499 -1.33466,-1.11978 -2.16797,-1.48438 -0.83335,-0.36456 -1.72528,-0.54686 -2.67578,-0.54687 m 6.85546,15.76172 0,-0.39063 c -0.97658,0.78125 -2.03777,1.38021 -3.18359,1.79688 -1.14585,0.41666 -2.36981,0.625 -3.67187,0.625 -3.02085,0 -5.59897,-1.06771 -7.73438,-3.20313 -2.13542,-2.13541 -3.20313,-4.71353 -3.20312,-7.73437 -10e-6,-3.02082 1.0677,-5.59895 3.20312,-7.73438 2.13541,-2.1354 4.71353,-3.2031 7.73438,-3.20312 2.99477,2e-5 5.57289,1.06772 7.73437,3.20312 2.13539,2.13543 3.2031,4.71356 3.20313,7.73438 l 0,8.90625 c -3e-5,0.55989 -0.20185,1.04166 -0.60547,1.44531 -0.39065,0.39062 -0.86591,0.58594 -1.42578,0.58594 -0.57294,0 -1.06122,-0.19532 -1.46485,-0.58594 -0.39064,-0.40365 -0.58596,-0.88542 -0.58594,-1.44531" />
              <path
                 inkscape:connector-curvature="0"
                 id="path3012"
                 style="font-weight:bold;fill:#9d9d9c;fill-opacity:1;stroke:#585858;stroke-width:1.79999995;stroke-miterlimit:3.0999999;stroke-opacity:1;stroke-dasharray:none;font-family:Comfortaa;-inkscape-font-specification:Comfortaa"
                 d="m -423.91205,182.1254 0,0.39062 c 0.97656,-0.78123 2.03775,-1.38019 3.1836,-1.79687 1.14582,-0.41665 2.36978,-0.62498 3.67187,-0.625 0.5729,2e-5 1.18488,0.0391 1.83594,0.11718 0.66405,0.0781 1.26951,0.22138 1.8164,0.42969 0.55988,0.19533 1.02212,0.46877 1.38672,0.82031 0.36457,0.35159 0.54686,0.80731 0.54688,1.36719 -2e-5,0.28648 -0.0586,0.5534 -0.17578,0.80078 -0.10419,0.24742 -0.24742,0.46877 -0.42969,0.66406 -0.18231,0.18231 -0.39715,0.32554 -0.64453,0.42969 -0.24741,0.10419 -0.51434,0.15627 -0.80078,0.15625 -0.24741,2e-5 -0.53387,-0.0716 -0.85938,-0.21484 -0.82033,-0.32551 -1.71225,-0.48827 -2.67578,-0.48828 -0.95053,1e-5 -1.84246,0.18231 -2.67578,0.54687 -0.83334,0.35158 -1.56251,0.83986 -2.1875,1.46485 -0.61199,0.61199 -1.10027,1.33464 -1.46484,2.16796 -0.35157,0.83335 -0.52735,1.72528 -0.52735,2.67579 l 0,8.90625 c 0,0.55989 -0.20183,1.04166 -0.60547,1.44531 -0.39063,0.39062 -0.86589,0.58594 -1.42578,0.58594 -0.57292,0 -1.0612,-0.19532 -1.46484,-0.58594 -0.39063,-0.40365 -0.58594,-0.88542 -0.58594,-1.44531 l 0,-17.8125 c 0,-0.55988 0.19531,-1.03514 0.58594,-1.42579 0.40364,-0.40362 0.89192,-0.60544 1.46484,-0.60546 0.55989,2e-5 1.03515,0.20184 1.42578,0.60546 0.40364,0.39065 0.60547,0.86591 0.60547,1.42579" />
              <path
                 inkscape:connector-curvature="0"
                 id="path3014"
                 style="font-weight:bold;fill:#9d9d9c;fill-opacity:1;stroke:#585858;stroke-width:1.79999995;stroke-miterlimit:3.0999999;stroke-opacity:1;stroke-dasharray:none;font-family:Comfortaa;-inkscape-font-specification:Comfortaa"
                 d="m -398.22845,184.17618 c -0.96356,1e-5 -1.86199,0.18231 -2.69532,0.54687 -0.83334,0.3646 -1.55599,0.85939 -2.16797,1.48438 -0.61198,0.61199 -1.10026,1.33465 -1.46484,2.16797 -0.35157,0.83334 -0.52735,1.71876 -0.52734,2.65625 -1e-5,0.93751 0.17577,1.82292 0.52734,2.65625 0.36458,0.83334 0.85286,1.5625 1.46484,2.1875 0.61198,0.61198 1.33463,1.10026 2.16797,1.46484 0.83333,0.36459 1.73176,0.54688 2.69532,0.54687 0.9505,1e-5 1.84243,-0.18228 2.67578,-0.54687 0.83331,-0.36458 1.55597,-0.85937 2.16797,-1.48438 0.62498,-0.62499 1.11326,-1.34764 1.46484,-2.16796 0.36456,-0.83333 0.54685,-1.71874 0.54687,-2.65625 -2e-5,-0.93749 -0.18231,-1.8164 -0.54687,-2.63672 -0.35158,-0.83332 -0.83986,-1.56249 -1.46484,-2.1875 -0.612,-0.62499 -1.33466,-1.11978 -2.16797,-1.48438 -0.83335,-0.36456 -1.72528,-0.54686 -2.67578,-0.54687 m 6.85546,15.76172 0,-0.39063 c -0.97658,0.78125 -2.03777,1.38021 -3.18359,1.79688 -1.14585,0.41666 -2.36981,0.625 -3.67187,0.625 -3.02085,0 -5.59897,-1.06771 -7.73438,-3.20313 -2.13542,-2.13541 -3.20313,-4.71353 -3.20312,-7.73437 -10e-6,-3.02082 1.0677,-5.59895 3.20312,-7.73438 2.13541,-2.1354 4.71353,-3.2031 7.73438,-3.20312 2.99477,2e-5 5.57289,1.06772 7.73437,3.20312 2.13539,2.13543 3.2031,4.71356 3.20313,7.73438 l 0,8.90625 c -3e-5,0.55989 -0.20185,1.04166 -0.60547,1.44531 -0.39065,0.39062 -0.86591,0.58594 -1.42578,0.58594 -0.57294,0 -1.06122,-0.19532 -1.46485,-0.58594 -0.39064,-0.40365 -0.58596,-0.88542 -0.58594,-1.44531" />
              <path
                 inkscape:connector-curvature="0"
                 id="path3016"
                 style="font-weight:bold;fill:#9d9d9c;fill-opacity:1;stroke:#585858;stroke-width:1.79999995;stroke-miterlimit:3.0999999;stroke-opacity:1;stroke-dasharray:none;font-family:Comfortaa;-inkscape-font-specification:Comfortaa"
                 d="m -380.10345,182.10586 c 1.73176,-1.34112 3.76952,-2.01169 6.11328,-2.01171 1.36717,2e-5 2.66274,0.26694 3.88672,0.80078 1.23696,0.53387 2.3242,1.26304 3.26171,2.1875 0.93748,0.91147 1.67967,1.9922 2.22657,3.24218 0.54685,1.237 0.82029,2.55861 0.82031,3.96485 l 0,9.6289 c -2e-5,0.57292 -0.20185,1.0612 -0.60547,1.46485 -0.39065,0.39062 -0.86591,0.58594 -1.42578,0.58594 -0.57294,0 -1.06122,-0.19532 -1.46484,-0.58594 -0.39065,-0.40365 -0.58596,-0.89193 -0.58594,-1.46485 l 0,-9.6289 c -2e-5,-0.83332 -0.16278,-1.62108 -0.48828,-2.36328 -0.32554,-0.74218 -0.76825,-1.38671 -1.32813,-1.9336 -0.54689,-0.55988 -1.19142,-1.00258 -1.93359,-1.32812 -0.7422,-0.32551 -1.52996,-0.48827 -2.36328,-0.48828 -0.84637,1e-5 -1.64064,0.16277 -2.38282,0.48828 -0.72917,0.31251 -1.3737,0.74871 -1.93359,1.30859 -0.5599,0.55991 -1.00261,1.21095 -1.32812,1.95313 -0.31251,0.7422 -0.46876,1.52996 -0.46875,2.36328 l 0,9.6289 c -10e-6,0.57292 -0.20183,1.0612 -0.60547,1.46485 -0.39063,0.39062 -0.86589,0.58594 -1.42578,0.58594 -0.57292,0 -1.06121,-0.19532 -1.46485,-0.58594 -0.39063,-0.40365 -0.58594,-0.89193 -0.58594,-1.46485 l 0,-17.77343 c 0,-0.55988 0.19531,-1.04165 0.58594,-1.44532 0.40364,-0.40362 0.89193,-0.60544 1.46485,-0.60546 0.55989,2e-5 1.03515,0.20184 1.42578,0.60546 0.40364,0.40367 0.60546,0.87242 0.60547,1.40625" />
              <path
                 inkscape:connector-curvature="0"
                 id="path3018"
                 style="font-weight:bold;fill:#9d9d9c;fill-opacity:1;stroke:#585858;stroke-width:1.79999995;stroke-miterlimit:3.0999999;stroke-opacity:1;stroke-dasharray:none;font-family:Comfortaa;-inkscape-font-specification:Comfortaa"
                 d="m -349.79095,184.17618 c -0.96356,1e-5 -1.86199,0.18231 -2.69532,0.54687 -0.83334,0.3646 -1.55599,0.85939 -2.16797,1.48438 -0.61198,0.61199 -1.10026,1.33465 -1.46484,2.16797 -0.35157,0.83334 -0.52735,1.71876 -0.52734,2.65625 -1e-5,0.93751 0.17577,1.82292 0.52734,2.65625 0.36458,0.83334 0.85286,1.5625 1.46484,2.1875 0.61198,0.61198 1.33463,1.10026 2.16797,1.46484 0.83333,0.36459 1.73176,0.54688 2.69532,0.54687 0.9505,1e-5 1.84243,-0.18228 2.67578,-0.54687 0.83331,-0.36458 1.55597,-0.85937 2.16797,-1.48438 0.62498,-0.62499 1.11326,-1.34764 1.46484,-2.16796 0.36456,-0.83333 0.54685,-1.71874 0.54687,-2.65625 -2e-5,-0.93749 -0.18231,-1.8164 -0.54687,-2.63672 -0.35158,-0.83332 -0.83986,-1.56249 -1.46484,-2.1875 -0.612,-0.62499 -1.33466,-1.11978 -2.16797,-1.48438 -0.83335,-0.36456 -1.72528,-0.54686 -2.67578,-0.54687 m 6.85546,15.76172 0,-0.39063 c -0.97658,0.78125 -2.03777,1.38021 -3.18359,1.79688 -1.14585,0.41666 -2.36981,0.625 -3.67187,0.625 -3.02085,0 -5.59897,-1.06771 -7.73438,-3.20313 -2.13542,-2.13541 -3.20313,-4.71353 -3.20312,-7.73437 -10e-6,-3.02082 1.0677,-5.59895 3.20312,-7.73438 2.13541,-2.1354 4.71353,-3.2031 7.73438,-3.20312 2.99477,2e-5 5.57289,1.06772 7.73437,3.20312 2.13539,2.13543 3.2031,4.71356 3.20313,7.73438 l 0,8.90625 c -3e-5,0.55989 -0.20185,1.04166 -0.60547,1.44531 -0.39065,0.39062 -0.86591,0.58594 -1.42578,0.58594 -0.57294,0 -1.06122,-0.19532 -1.46485,-0.58594 -0.39064,-0.40365 -0.58596,-0.88542 -0.58594,-1.44531 m -2.63671,-25.72266 -3.90625,3.88672 c -0.3646,0.3646 -0.83335,0.5469 -1.40625,0.54687 -0.58595,3e-5 -1.07423,-0.18878 -1.46485,-0.5664 -0.37761,-0.3906 -0.56641,-0.87889 -0.5664,-1.46485 -10e-6,-0.55987 0.16926,-1.02211 0.50781,-1.38672 l 3.90625,-3.88671 c 0.41665,-0.40362 0.89842,-0.60544 1.44531,-0.60547 0.58592,3e-5 1.06769,0.20185 1.44531,0.60547 0.39061,0.39065 0.58592,0.87242 0.58594,1.44531 -2e-5,0.58596 -0.18231,1.06122 -0.54687,1.42578" />
            </g>
            <path
               style="fill:#e6af5c"
               d="m 313.51946,391.88752 c -3.99284,-2.79669 -8.15186,-9.43981 -8.15186,-13.0208 0,-6.36319 7.68573,-8.0212 17.74961,-3.82903 4.80063,1.99973 10.25039,6.45225 10.25039,8.37471 0,2.19014 -1.93733,4.08131 -4.18095,4.08131 -1.04703,0 -2.02974,0.99129 -2.38469,2.40552 -0.94564,3.76773 -9.01701,4.97596 -13.2825,1.98829 z m 32.13023,-3.36333 c -4.38826,-2.67565 -11.19274,-9.8263 -11.85267,-12.45568 -1.00245,-3.99405 1.13835,-7.40309 5.11779,-8.14963 6.51814,-1.22281 16.36462,0.38342 20.86058,3.40294 5.18963,3.4854 5.64911,5.66267 1.67262,7.92588 -1.68727,0.9603 -3.07061,2.57797 -3.07409,3.5948 -0.008,2.24017 -5.57205,7.65268 -7.86208,7.64747 -0.90433,-0.002 -3.0923,-0.88666 -4.86215,-1.96578 z m 41.21791,-3.45457 c -11.05106,-2.77159 -18.0045,-7.04344 -19.02456,-11.68773 -0.57436,-2.61503 -0.17131,-3.60674 2.64794,-6.51548 7.16001,-7.38725 30.41631,-10.8392 34.09096,-5.06014 1.24811,1.9629 0.9273,2.75271 -2.36882,5.83175 -2.38439,2.22735 -2.87265,3.22856 -2,4.10121 1.5895,1.5895 1.39313,5.85486 -0.37732,8.19561 -0.80751,1.06762 -1.4682,2.70698 -1.4682,3.64301 0,3.09499 -3.36638,3.53168 -11.5,1.49177 z m -104.30396,-0.86835 c -1.5322,-1.89108 -4.19749,-10.48937 -4.18239,-13.49251 0.0393,-7.81031 3.02997,-9.77549 8.93238,-5.86946 3.8266,2.53232 10.35284,9.85049 11.28503,12.65441 0.75826,2.28079 -1.05381,5 -3.33199,5 -1.1168,0 -2.78847,0.38662 -3.71481,0.85915 -3.21124,1.63807 -7.98344,2.08852 -8.98822,0.84841 z m 36.30396,-15.72792 c -5.69507,-0.82066 -12.07637,-3.28629 -14.73703,-5.69415 -1.38775,-1.2559 -2.08477,-1.36369 -2.9866,-0.46186 -0.647,0.647 -2.34378,1.17637 -3.77061,1.17637 -3.31053,0 -12.72697,-5.66443 -15.36339,-9.24179 -1.93295,-2.62284 -1.94804,-2.89401 -0.34767,-6.25 l 1.67294,-3.50821 8.44879,0 c 9.34682,0 8.83074,-0.39799 10.10573,7.79329 l 0.66826,4.29329 2.15479,-2.32075 c 1.18514,-1.27641 3.50479,-2.80339 5.15479,-3.39329 1.65,-0.58989 4.575,-1.65277 6.5,-2.36195 1.925,-0.70917 4.85,-1.33917 6.5,-1.4 2.47837,-0.0914 3.06013,0.32411 3.34582,2.38941 0.1902,1.375 0.76388,3.00958 1.27484,3.6324 0.51097,0.62282 0.81614,2.61392 0.67817,4.42466 -0.14554,1.90997 0.2639,3.46385 0.97515,3.70093 1.34177,0.44726 1.62958,4.09428 0.46071,5.83804 -1.11335,1.66092 -5.17618,2.18458 -10.73469,1.38361 z m -57.11047,-5.74495 c -2.11484,-1.39919 -4.38953,-7.15297 -4.38953,-11.10324 0,-5.75425 0.79723,-7.13145 4.12823,-7.13145 3.59775,0 14.26304,9.75134 13.71496,12.53967 -0.35899,1.82636 -1.01704,2.28522 -6.99432,4.87711 -4.08799,1.77265 -4.86713,1.87131 -6.45934,0.81791 z m 71.36047,-0.24925 c -4.11644,-2.55177 -0.70031,-11.84675 7.15485,-19.46765 4.4182,-4.28644 5.37693,-4.80979 6.86525,-3.74761 0.95145,0.67903 2.67911,1.64832 3.83926,2.15398 1.21748,0.53066 2.36966,2.22092 2.725,3.99762 0.52367,2.61839 1.06467,3.07822 3.62159,3.07822 3.18343,0 3.36019,-0.32653 4.39518,-8.11926 0.59832,-4.5049 5.39325,-16.86363 7.32533,-18.88074 1.27433,-1.33041 1.55111,-1.29847 2.44807,0.28257 0.79343,1.39854 1.75339,1.64336 4.4558,1.13638 3.1864,-0.59777 3.52582,-0.41289 4.52991,2.46743 1.20047,3.44367 2.53736,3.8474 5.44863,1.64542 3.28799,-2.4869 5.15516,-1.8697 5.86993,1.94034 0.8242,4.39339 -0.76978,7.55145 -7.5632,14.98454 -7.92659,8.67295 -17.49028,13.51864 -20.58101,10.42791 -0.82055,-0.82055 -1.99722,-0.44283 -4.45111,1.42885 -7.37517,5.62532 -21.81395,9.31867 -26.08348,6.672 z m 77.75711,-11.22567 c -2.86349,-2.46307 -2.88869,-2.57355 -1.52758,-6.69774 0.76116,-2.30635 3.21091,-6.26892 5.44388,-8.80571 4.77497,-5.42465 14.90957,-12.25632 18.18194,-12.25632 3.1024,0 4.4267,2.60961 3.16337,6.2336 -0.84894,2.43526 -0.65635,3.25711 1.23506,5.27042 1.67563,1.78363 2.073,3.05391 1.57546,5.03627 -0.37457,1.49241 -0.17917,3.23684 0.44709,3.99144 3.23688,3.90019 -5.10056,8.11738 -18.06702,9.13856 -7.03933,0.55438 -7.73426,0.42735 -10.4522,-1.91052 z M 263.3676,340.49371 c -1.1,-1.1 -2,-2.49303 -2,-3.09563 0,-3.82591 11.27341,-12.7809 14.52099,-11.53469 0.82297,0.31581 2.02943,1.82432 2.68102,3.35226 0.65159,1.52793 1.80886,3.52845 2.57171,4.44559 1.99559,2.39924 1.13034,6.07871 -1.77372,7.5427 -1.375,0.69316 -5.0875,1.26692 -8.25,1.27503 -4.42988,0.0114 -6.20917,-0.44443 -7.75,-1.98526 z m -138.67436,-6.59377 c -0.33637,-0.87657 0.36729,-3.23907 1.56369,-5.25 4.29829,-7.22464 8.83773,-16.78007 11.1902,-23.55513 2.33369,-6.721 2.34639,-6.92729 0.49257,-8 -6.80967,-3.94039 -22.59769,-16.88831 -29.08232,-23.85071 -24.789463,-26.61591 -36.494143,-57.14582 -36.486593,-95.1698 0.005,-25.36072 4.12895,-43.57387 14.51827,-64.11963 6.52797,-12.90961 12.87879,-21.792966 23.468983,-32.82779 22.2267,-23.159902 49.76194,-37.185037 80.67962,-41.094349 15.75601,-1.99223 22.96418,-1.916411 38.85895,0.408736 51.09526,7.474407 93.82596,43.872123 110.41701,94.052453 3.64662,11.02938 7.05398,31.4547 7.05398,42.28495 0,7.57927 -2.59838,28.09382 -4.45101,35.1413 -4.52612,17.21753 -13.3166,35.85207 -22.93284,48.61431 -8.00854,10.62857 -23.80135,25.85788 -33.65496,32.45414 -16.52129,11.05977 -36.00552,18.73373 -55.92594,22.02673 -8.15195,1.34758 -13.89818,1.60726 -26,1.175 -16.29831,-0.58217 -24.7694,-2.02057 -39.23932,-6.66291 -9.99229,-3.2058 -8.40918,-3.93258 -16.26371,7.46647 -5.7241,8.30721 -11.99461,15.11485 -15.73256,17.08021 -3.59483,1.8901 -7.71441,1.80553 -8.47402,-0.17398 z m 21.17297,-84.20647 c -8.5e-4,-13.81071 -0.49266,-25.4409 -1.25593,-29.69976 -0.68999,-3.85 -2.4743,-13.525 -3.96513,-21.49999 -3.40687,-18.22469 -4.01942,-32.8231 -1.80427,-43 7.72058,-35.47 22.64484,-56.557714 50.88668,-71.901966 19.89893,-10.81141 38.34267,-14.181462 58.14004,-10.62339 4.4,0.790788 10.40689,2.16311 13.34863,3.049606 2.94175,0.886496 5.53728,1.423171 5.76784,1.19261 0.84101,-0.841008 -11.44858,-6.69854 -20.16654,-9.61189 -24.88305,-8.315364 -54.297,-7.974412 -78.17758,0.906198 -39.41776,14.658504 -68.00362,49.184662 -75.334023,90.988832 -1.47317,8.40127 -1.48674,28.67777 -0.0248,37 3.99994,22.76956 14.333073,43.5138 30.002353,60.23114 8.82397,9.41418 20.10979,18.14326 21.56958,16.68313 0.62651,-0.62665 1.01399,-9.69642 1.01313,-23.71452 z M 325.91746,190.7438 c 1.01683,-12.19805 -0.15427,-31.39935 -2.4244,-39.75008 -3.79728,-13.96845 -12.95339,-34.27598 -15.8964,-35.25698 -0.63047,-0.21016 0.13504,3.11191 1.71409,7.43861 6.23553,17.0858 10.79197,42.25609 11.71803,64.73183 0.63315,15.36673 0.71586,15.83913 2.40747,13.75008 1.19808,-1.47956 1.98235,-4.92916 2.48121,-10.91346 z m 70.01891,137.62534 c -3.66939,-2.88634 -6.83164,-8.14133 -9.42338,-15.65965 -2.68385,-7.7855 -2.12184,-11.37917 1.71805,-10.98585 2.07385,0.21243 2.70476,-0.21014 2.95611,-1.97993 0.37585,-2.64638 2.77159,-2.92998 5.31408,-0.62907 1.6767,1.51739 1.92759,1.38963 3.92752,-2 2.34162,-3.96875 3.96805,-4.49598 6.06641,-1.96652 2.12283,2.55897 1.74597,22.76976 -0.536,28.745 -1.60494,4.2025 -3.92688,6.60059 -6.39096,6.60059 -0.51199,0 -2.14631,-0.95606 -3.63183,-2.12457 z"
               id="path3021"
               inkscape:connector-curvature="0"
               sodipodi:nodetypes="ssssssssssssccssssssssssssssssssssssscsscssscsssssssssssssssssssssssssssssssssssssssssssssssssssssssssssssssssssscsssssssssssssccsssssssssssssssss" />
            <path
               style="fill:#9d9d9c"
               d="m 313.51946,391.88752 c -3.99284,-2.79669 -8.15186,-9.43981 -8.15186,-13.0208 0,-6.36319 7.68573,-8.0212 17.74961,-3.82903 4.80063,1.99973 10.25039,6.45225 10.25039,8.37471 0,2.19014 -1.93733,4.08131 -4.18095,4.08131 -1.04703,0 -2.02974,0.99129 -2.38469,2.40552 -0.94564,3.76773 -9.01701,4.97596 -13.2825,1.98829 z m 32.13023,-3.36333 c -4.38826,-2.67565 -11.19274,-9.8263 -11.85267,-12.45568 -1.00245,-3.99405 1.13835,-7.40309 5.11779,-8.14963 6.51814,-1.22281 16.36462,0.38342 20.86058,3.40294 5.18963,3.4854 5.64911,5.66267 1.67262,7.92588 -1.68727,0.9603 -3.07061,2.57797 -3.07409,3.5948 -0.008,2.24017 -5.57205,7.65268 -7.86208,7.64747 -0.90433,-0.002 -3.0923,-0.88666 -4.86215,-1.96578 z m 41.21791,-3.45457 c -11.05106,-2.77159 -18.0045,-7.04344 -19.02456,-11.68773 -0.57436,-2.61503 -0.17131,-3.60674 2.64794,-6.51548 7.16001,-7.38725 30.41631,-10.8392 34.09096,-5.06014 1.24811,1.9629 0.9273,2.75271 -2.36882,5.83175 -2.38439,2.22735 -2.87265,3.22856 -2,4.10121 1.5895,1.5895 1.39313,5.85486 -0.37732,8.19561 -0.80751,1.06762 -1.4682,2.70698 -1.4682,3.64301 0,3.09499 -3.36638,3.53168 -11.5,1.49177 z m -104.30396,-0.86835 c -1.5322,-1.89108 -4.19749,-10.48937 -4.18239,-13.49251 0.0393,-7.81031 3.02997,-9.77549 8.93238,-5.86946 3.8266,2.53232 10.35284,9.85049 11.28503,12.65441 0.75826,2.28079 -1.05381,5 -3.33199,5 -1.1168,0 -2.78847,0.38662 -3.71481,0.85915 -3.21124,1.63807 -7.98344,2.08852 -8.98822,0.84841 z m 36.30396,-15.72792 c -5.69507,-0.82066 -12.07637,-3.28629 -14.73703,-5.69415 -1.38775,-1.2559 -2.08477,-1.36369 -2.9866,-0.46186 -0.647,0.647 -2.34378,1.17637 -3.77061,1.17637 -3.31053,0 -12.72697,-5.66443 -15.36339,-9.24179 -1.93295,-2.62284 -1.94804,-2.89401 -0.34767,-6.25 l 1.67294,-3.50821 8.44879,0 c 9.34682,0 8.83074,-0.39799 10.10573,7.79329 l 0.66826,4.29329 2.15479,-2.32075 c 1.18514,-1.27641 3.50479,-2.80339 5.15479,-3.39329 1.65,-0.58989 4.575,-1.65277 6.5,-2.36195 1.925,-0.70917 4.85,-1.33917 6.5,-1.4 2.47837,-0.0914 3.06013,0.32411 3.34582,2.38941 0.1902,1.375 0.76388,3.00958 1.27484,3.6324 0.51097,0.62282 0.81614,2.61392 0.67817,4.42466 -0.14554,1.90997 0.2639,3.46385 0.97515,3.70093 1.34177,0.44726 1.62958,4.09428 0.46071,5.83804 -1.11335,1.66092 -5.17618,2.18458 -10.73469,1.38361 z m -57.11047,-5.74495 c -2.11484,-1.39919 -4.38953,-7.15297 -4.38953,-11.10324 0,-5.75425 0.79723,-7.13145 4.12823,-7.13145 3.59775,0 14.26304,9.75134 13.71496,12.53967 -0.35899,1.82636 -1.01704,2.28522 -6.99432,4.87711 -4.08799,1.77265 -4.86713,1.87131 -6.45934,0.81791 z m 71.36047,-0.24925 c -4.11644,-2.55177 -0.70031,-11.84675 7.15485,-19.46765 4.4182,-4.28644 5.37693,-4.80979 6.86525,-3.74761 0.95145,0.67903 2.67911,1.64832 3.83926,2.15398 1.21748,0.53066 2.36966,2.22092 2.725,3.99762 0.52367,2.61839 1.06467,3.07822 3.62159,3.07822 3.18343,0 3.36019,-0.32653 4.39518,-8.11926 0.59832,-4.5049 5.39325,-16.86363 7.32533,-18.88074 1.27433,-1.33041 1.55111,-1.29847 2.44807,0.28257 0.79343,1.39854 1.75339,1.64336 4.4558,1.13638 3.1864,-0.59777 3.52582,-0.41289 4.52991,2.46743 1.20047,3.44367 2.53736,3.8474 5.44863,1.64542 3.28799,-2.4869 5.15516,-1.8697 5.86993,1.94034 0.8242,4.39339 -0.76978,7.55145 -7.5632,14.98454 -7.92659,8.67295 -17.49028,13.51864 -20.58101,10.42791 -0.82055,-0.82055 -1.99722,-0.44283 -4.45111,1.42885 -7.37517,5.62532 -21.81395,9.31867 -26.08348,6.672 z m 77.75711,-11.22567 c -2.86349,-2.46307 -2.88869,-2.57355 -1.52758,-6.69774 0.76116,-2.30635 3.21091,-6.26892 5.44388,-8.80571 4.77497,-5.42465 14.90957,-12.25632 18.18194,-12.25632 3.1024,0 4.4267,2.60961 3.16337,6.2336 -0.84894,2.43526 -0.65635,3.25711 1.23506,5.27042 1.67563,1.78363 2.073,3.05391 1.57546,5.03627 -0.37457,1.49241 -0.17917,3.23684 0.44709,3.99144 3.23688,3.90019 -5.10056,8.11738 -18.06702,9.13856 -7.03933,0.55438 -7.73426,0.42735 -10.4522,-1.91052 z M 263.3676,340.49371 c -1.1,-1.1 -2,-2.49303 -2,-3.09563 0,-3.82591 11.27341,-12.7809 14.52099,-11.53469 0.82297,0.31581 2.02943,1.82432 2.68102,3.35226 0.65159,1.52793 1.80886,3.52845 2.57171,4.44559 1.99559,2.39924 1.13034,6.07871 -1.77372,7.5427 -1.375,0.69316 -5.0875,1.26692 -8.25,1.27503 -4.42988,0.0114 -6.20917,-0.44443 -7.75,-1.98526 z m -138.67436,-6.59377 c -0.33637,-0.87657 0.36729,-3.23907 1.56369,-5.25 4.29829,-7.22464 8.83773,-16.78007 11.1902,-23.55513 2.33369,-6.721 2.34639,-6.92729 0.49257,-8 -6.80967,-3.94039 -22.59769,-16.88831 -29.08232,-23.85071 -24.789463,-26.61591 -36.494143,-57.14582 -36.486593,-95.1698 0.005,-25.36072 4.12895,-43.57387 14.51827,-64.11963 6.52797,-12.90961 12.87879,-21.792966 23.468983,-32.82779 22.2267,-23.159902 49.76194,-37.185037 80.67962,-41.094349 15.75601,-1.99223 22.96418,-1.916411 38.85895,0.408736 51.09526,7.474407 93.82596,43.872123 110.41701,94.052453 3.64662,11.02938 7.05398,31.4547 7.05398,42.28495 0,7.57927 -2.59838,28.09382 -4.45101,35.1413 -4.52612,17.21753 -13.3166,35.85207 -22.93284,48.61431 -8.00854,10.62857 -23.80135,25.85788 -33.65496,32.45414 -16.52129,11.05977 -36.00552,18.73373 -55.92594,22.02673 -8.15195,1.34758 -13.89818,1.60726 -26,1.175 -16.29831,-0.58217 -24.7694,-2.02057 -39.23932,-6.66291 -9.99229,-3.2058 -8.40918,-3.93258 -16.26371,7.46647 -5.7241,8.30721 -11.99461,15.11485 -15.73256,17.08021 -3.59483,1.8901 -7.71441,1.80553 -8.47402,-0.17398 z m 21.17297,-84.20647 c -8.5e-4,-13.81071 -0.49266,-25.4409 -1.25593,-29.69976 -0.68999,-3.85 -2.4743,-13.525 -3.96513,-21.49999 -3.40687,-18.22469 -4.01942,-32.8231 -1.80427,-43 7.72058,-35.47 22.64484,-56.557714 50.88668,-71.901966 19.89893,-10.81141 38.34267,-14.181462 58.14004,-10.62339 4.4,0.790788 10.40689,2.16311 13.34863,3.049606 2.94175,0.886496 5.53728,1.423171 5.76784,1.19261 0.84101,-0.841008 -11.44858,-6.69854 -20.16654,-9.61189 -24.88305,-8.315364 -54.297,-7.974412 -78.17758,0.906198 -39.41776,14.658504 -68.00362,49.184662 -75.334023,90.988832 -1.47317,8.40127 -1.48674,28.67777 -0.0248,37 3.99994,22.76956 14.333073,43.5138 30.002353,60.23114 8.82397,9.41418 20.10979,18.14326 21.56958,16.68313 0.62651,-0.62665 1.01399,-9.69642 1.01313,-23.71452 z M 325.91746,190.7438 c 1.01683,-12.19805 -0.15427,-31.39935 -2.4244,-39.75008 -3.79728,-13.96845 -12.95339,-34.27598 -15.8964,-35.25698 -0.63047,-0.21016 0.13504,3.11191 1.71409,7.43861 6.23553,17.0858 10.79197,42.25609 11.71803,64.73183 0.63315,15.36673 0.71586,15.83913 2.40747,13.75008 1.19808,-1.47956 1.98235,-4.92916 2.48121,-10.91346 z m 70.01891,137.62534 c -3.66939,-2.88634 -6.83164,-8.14133 -9.42338,-15.65965 -2.68385,-7.7855 -2.12184,-11.37917 1.71805,-10.98585 2.07385,0.21243 2.70476,-0.21014 2.95611,-1.97993 0.37585,-2.64638 2.77159,-2.92998 5.31408,-0.62907 1.6767,1.51739 1.92759,1.38963 3.92752,-2 2.34162,-3.96875 3.96805,-4.49598 6.06641,-1.96652 2.12283,2.55897 1.74597,22.76976 -0.536,28.745 -1.60494,4.2025 -3.92688,6.60059 -6.39096,6.60059 -0.51199,0 -2.14631,-0.95606 -3.63183,-2.12457 z"
               id="path3019"
               inkscape:connector-curvature="0"
               sodipodi:nodetypes="ssssssssssssccssssssssssssssssssssssscsscssscsssssssssssssssssssssssssssssssssssssssssssssssssssssssssssssssssssscsssssssssssssccsssssssssssssssss" />
            <path
               style="fill:#f69e19"
               d="m 317.75573,390.3127 c -0.33763,-0.54629 -0.14332,-1.4638 0.43178,-2.0389 1.15284,-1.15284 4.18009,-0.37657 4.18009,1.07189 0,1.32612 -3.88631,2.14099 -4.61187,0.96701 z m 26.18714,-6.41712 c -2.59178,-1.97898 -4.4518,-3.85867 -4.13337,-4.1771 0.31843,-0.31843 1.83639,0.62573 3.37325,2.09813 3.16349,3.03082 4.82109,3.31627 7.12895,1.22769 1.09736,-0.9931 2.06663,-1.14819 3.07874,-0.49264 1.23596,0.80054 1.06894,1.27851 -1.02284,2.92717 -1.375,1.08373 -2.77279,1.98041 -3.1062,1.99264 -0.33341,0.0122 -2.72675,-1.59692 -5.31853,-3.57589 z m -19.9086,-0.0685 c -2.45135,-2.45134 1.80087,-3.2033 4.8922,-0.86513 1.84303,1.39399 1.7853,1.4698 -1.1422,1.5 -1.69584,0.0175 -3.38334,-0.2682 -3.75,-0.63487 z m 62.31497,-1.37003 c -5.28941,-1.25651 -12.33379,-4.47776 -13.8883,-6.35084 -1.81784,-2.19035 -0.59041,-3.32294 1.65053,-1.523 3.10719,2.49572 6.17211,3.91031 8.49256,3.91968 1.24496,0.005 4.51357,1.11596 7.26357,2.46873 3.85757,1.89761 4.42879,2.44378 2.5,2.39041 -1.375,-0.0381 -4.08326,-0.44529 -6.01836,-0.90498 z m -101.52276,-2.02983 c -0.36253,-0.58659 -0.4085,-1.31719 -0.10214,-1.62354 0.82264,-0.82264 3.64326,0.46152 3.64326,1.65869 0,1.35725 -2.69711,1.33048 -3.54112,-0.0351 z m 108.79112,-1.65197 c -0.6875,-0.24651 -1.25,-1.3406 -1.25,-2.4313 0,-1.56175 0.56789,-1.91586 2.67288,-1.66666 1.47009,0.17403 2.84743,0.84845 3.06077,1.49872 0.46093,1.40496 -2.70149,3.23826 -4.48365,2.59924 z m -101.79112,-1.34807 c -1.08933,-1.76258 0.059,-2.0097 2.11412,-0.45494 1.69187,1.27997 1.72067,1.46174 0.23602,1.48967 -0.93004,0.0175 -1.9876,-0.44814 -2.35014,-1.03473 z m 62.47699,-1.51074 c -1.15399,-1.39047 -0.91113,-1.53852 2.05054,-1.25 1.84776,0.18 3.54422,0.88977 3.76991,1.57727 0.60378,1.83925 -4.24884,1.5664 -5.82045,-0.32727 z m 40.06413,-8.92273 c 0,-1.03216 1.01364,-1.49008 3.25,-1.4682 3.0742,0.0301 3.145,0.11123 1.30887,1.5 -2.49986,1.89081 -4.55887,1.87644 -4.55887,-0.0318 z m -81.49769,-2.10387 c -2.19873,-0.80462 -4.67373,-2.18021 -5.5,-3.05688 -1.62173,-1.72065 -0.83903,-1.65266 9.49769,0.82502 2.2,0.52733 5.2375,1.20717 6.75,1.51076 1.5125,0.30358 2.75,0.95089 2.75,1.43847 0,1.38656 -9.06496,0.90478 -13.49769,-0.71737 z m -49.50231,-5.39613 c -0.98885,-0.61115 -1.14995,-1.25005 -0.48328,-1.91672 0.6204,-0.6204 1.56305,-0.65201 2.48328,-0.0833 0.98885,0.61115 1.14995,1.25005 0.48328,1.91672 -0.6204,0.6204 -1.56305,0.65201 -2.48328,0.0833 z m 26.24988,-1.93395 c -3.94016,-2.85424 -6.01057,-5.06605 -4.74218,-5.06605 0.34416,0 2.10069,1.125 3.90341,2.5 1.80272,1.375 3.7426,2.5 4.31084,2.5 0.56824,0 1.59336,0.675 2.27805,1.5 2.20444,2.65619 -1.31567,1.77835 -5.75012,-1.43395 z m 45.75012,2.14023 c 0,-0.43655 2.8125,-1.37312 6.25,-2.08126 3.4375,-0.70814 8.42138,-2.1401 11.07529,-3.18214 6.59327,-2.5888 5.60223,-0.29693 -1.39862,3.23444 -5.25982,2.65316 -15.92667,4.01205 -15.92667,2.02896 z m -66,-3.70628 c 0,-0.91667 0.48375,-1.50542 1.075,-1.30833 0.59125,0.19708 1.075,0.78583 1.075,1.30833 0,0.5225 -0.48375,1.11125 -1.075,1.30833 -0.59125,0.19709 -1.075,-0.39166 -1.075,-1.30833 z m 26.5,-2.5 c -0.33992,-0.55 0.30852,-1 1.44098,-1 1.13246,0 2.05902,0.45 2.05902,1 0,0.55 -0.64844,1 -1.44098,1 -0.79254,0 -1.7191,-0.45 -2.05902,-1 z m 69.5,-1.89159 c 0,-0.49038 1.2375,-1.19277 2.75,-1.56087 1.5125,-0.3681 4.42785,-1.76689 6.47856,-3.10841 4.74593,-3.10467 5.74381,-3.10307 2.82437,0.005 -3.73956,3.98011 -12.05293,7.19757 -12.05293,4.66428 z m 49,-1.10841 c -1.0668,-0.68942 0.12524,-0.9738 4.12756,-0.98469 3.76707,-0.0102 6.03911,-0.51121 6.87244,-1.51531 0.7748,-0.93357 2.97346,-1.5 5.82244,-1.5 6.64992,0 4.06105,1.87319 -4.96888,3.59527 -8.65332,1.65025 -9.86238,1.69153 -11.85356,0.40473 z m 18.22917,-9.1875 c 0.61807,-1.85422 2.77083,-2.16176 2.77083,-0.39583 0,0.87083 -0.7125,1.58333 -1.58333,1.58333 -0.87084,0 -1.40521,-0.53438 -1.1875,-1.1875 z M 266.6176,339.83143 c -4.44684,-1.79434 2.92847,-3.19882 8.69645,-1.65606 2.26579,0.60603 2.30271,0.7106 0.5,1.41606 -2.2056,0.86313 -7.32132,0.99663 -9.19645,0.24 z m -139.25,-7.35992 c 0,-0.56221 1.83071,-4.66329 4.06824,-9.11352 4.72572,-9.399 9.93176,-22.54032 9.93176,-25.07022 0,-1.07494 -2.80063,-3.56946 -7.25,-6.45758 -9.47403,-6.14966 -29.11254,-25.79491 -35.346663,-35.35878 -6.71351,-10.29931 -16.40334,-30.27263 -16.40334,-33.81163 0,-0.97134 -0.44809,-2.21416 -0.99575,-2.76182 -0.54766,-0.54766 -1.15058,-2.32516 -1.33982,-3.95 -0.18925,-1.62484 -0.84131,-4.52925 -1.44903,-6.45425 -1.79062,-5.67192 -4.2154,-24.4539 -4.2154,-32.65193 0,-14.29972 3.94712,-35.31841 9.27378,-49.38348 11.81172,-31.188962 38.291783,-59.881788 67.549963,-73.194677 16.29189,-7.413045 25.87454,-10.01433 45.21805,-12.27479 11.62711,-1.358729 14.31929,-1.355296 26.20821,0.03342 16.13572,1.884774 22.24849,3.355251 35.46297,8.5309 31.38936,12.294122 56.90328,35.689663 71.76637,65.807747 9.91519,20.09183 13.71735,36.56452 13.76419,59.63282 0.0447,21.99676 -3.63197,40.1726 -11.68949,57.78812 -1.40472,3.07105 -2.55404,5.90757 -2.55404,6.3034 0,0.39583 -1.125,2.19464 -2.5,3.99736 -1.375,1.80272 -2.5,3.82772 -2.5,4.5 0,0.67228 -1.125,2.69728 -2.5,4.5 -1.375,1.80272 -2.5,3.54837 -2.5,3.87923 0,1.39746 -13.71305,17.02089 -19.8443,22.60882 -13.37892,12.19337 -32.6898,23.28828 -49.32298,28.33813 -16.42754,4.98742 -22.42941,5.871 -40.33272,5.93766 -18.89406,0.0704 -28.35478,-1.34169 -43.67354,-6.51841 -4.84309,-1.63664 -9.59781,-2.72243 -10.56604,-2.41285 -0.96823,0.30957 -4.01042,4.01371 -6.76042,8.23143 -2.75,4.21771 -6.97102,9.86495 -9.38004,12.5494 -5.47349,6.0993 -12.11996,9.81492 -12.11996,6.7755 z m 19.19362,-58.2278 c 0.91171,-1.62292 1.26534,-8.38143 1.26885,-24.25 0.005,-22.96067 -0.74346,-30.18547 -6.00598,-57.96916 -3.00891,-15.88569 -3.10083,-26.07258 -0.3526,-39.07608 2.66425,-12.60608 4.16499,-17.09655 8.90723,-26.65186 6.93389,-13.97136 15.47854,-24.50297 26.69476,-32.902326 8.28861,-6.206994 26.90217,-15.281081 35.79412,-17.449585 11.66208,-2.844065 32.08721,-2.658457 42.88201,0.389679 9.35425,2.641367 17.01994,6.154133 21.02353,9.633932 1.59805,1.388974 3.51055,2.525407 4.25,2.525407 0.73945,0 1.35685,0.5625 1.37199,1.25 0.0151,0.6875 1.64689,2.375 3.62611,3.75 9.01332,6.261716 16.39717,17.646403 21.87449,33.726893 6.41311,18.82778 9.35803,37.78582 10.06177,64.77311 0.55299,21.20657 0.87644,24.49999 2.4061,24.49999 1.45267,0 4.09226,-4.49509 5.1249,-8.72743 4.04555,-16.581 4.92557,-35.73345 2.30993,-50.27256 -2.59423,-14.4201 -3.10549,-16.33371 -5.80971,-21.7451 -1.44162,-2.8848 -2.62112,-6.12074 -2.62112,-7.19098 0,-1.07024 -0.47776,-2.24116 -1.06168,-2.60204 -0.58393,-0.36089 -1.50325,-1.62495 -2.04294,-2.80902 C 312.65596,115.23284 303.9525,104.36271 293.3144,94.4851 287.69222,89.264839 282.59171,84.512697 281.97993,83.924783 279.3945,81.440216 269.87018,75.212318 264.57657,72.544827 249.74236,65.069758 237.02649,61.392784 219.1748,59.416265 c -11.33475,-1.254972 -22.46511,-0.443864 -37.3072,2.718707 -18.77244,4.000055 -39.57293,15.246782 -55.36009,29.93295 -6.90772,6.425971 -20.10628,22.178008 -20.16773,24.069498 -0.0153,0.47097 -1.3653,2.62396 -3,4.78444 -1.6347,2.16048 -2.97218,4.49916 -2.97218,5.19708 0,0.69793 -1.012503,3.20526 -2.250003,5.57187 -2.49914,4.77937 -4.92133,12.23069 -6.92491,21.30291 -1.81028,8.19695 -1.77974,40.01053 0.0461,47.99999 6.50189,28.45122 21.351313,52.0573 44.244093,70.33475 7.10078,5.66921 9.21824,6.22641 11.07836,2.91525 z m 57.63902,-104.69135 c 3.275,-4.07531 4.09548,-7.08225 1.91736,-7.02684 -2.99741,0.0763 -6.75,5.02549 -6.75,8.90246 0,3.04011 1.28215,2.54248 4.83264,-1.87562 z m -57.83264,-7.99962 c 0,-0.51754 -0.45,-1.2191 -1,-1.55902 -0.55,-0.33992 -1,0.0835 -1,0.94098 0,0.85746 0.45,1.55902 1,1.55902 0.55,0 1,-0.42344 1,-0.94098 z m 283.48475,170.9163 c -0.40754,-0.65942 -0.12083,-1.5842 0.63713,-2.05509 1.66304,-1.03315 2.55953,0.79835 1.10349,2.25439 -0.66618,0.66618 -1.24681,0.5997 -1.74062,-0.1993 z m -33.02587,-6.04186 c -1.0006,-1.61901 0.0227,-2.10168 2.91621,-1.37546 1.4361,0.36043 2.36264,1.05733 2.05898,1.54866 -0.76619,1.23972 -4.1753,1.12104 -4.97519,-0.1732 z"
               id="path3017"
               inkscape:connector-curvature="0"
               sodipodi:nodetypes="sssssssssscscsscssscscsccsccssssssssssssssssssssssscscscsssssssssssscscssssssssscsscssssssssssssssssssssssssssssssssssssssssssscssssssssscsssssssssssssssssssssssccscsssssssscssssss" />
            <path
               style="fill:#9a7032"
               d="m 317.75573,390.3127 c -0.33763,-0.54629 -0.14332,-1.4638 0.43178,-2.0389 1.15284,-1.15284 4.18009,-0.37657 4.18009,1.07189 0,1.32612 -3.88631,2.14099 -4.61187,0.96701 z m 26.18714,-6.41712 c -2.59178,-1.97898 -4.4518,-3.85867 -4.13337,-4.1771 0.31843,-0.31843 1.83639,0.62573 3.37325,2.09813 3.16349,3.03082 4.82109,3.31627 7.12895,1.22769 1.09736,-0.9931 2.06663,-1.14819 3.07874,-0.49264 1.23596,0.80054 1.06894,1.27851 -1.02284,2.92717 -1.375,1.08373 -2.77279,1.98041 -3.1062,1.99264 -0.33341,0.0122 -2.72675,-1.59692 -5.31853,-3.57589 z m -19.9086,-0.0685 c -2.45135,-2.45134 1.80087,-3.2033 4.8922,-0.86513 1.84303,1.39399 1.7853,1.4698 -1.1422,1.5 -1.69584,0.0175 -3.38334,-0.2682 -3.75,-0.63487 z m 62.31497,-1.37003 c -5.28941,-1.25651 -12.33379,-4.47776 -13.8883,-6.35084 -1.81784,-2.19035 -0.59041,-3.32294 1.65053,-1.523 3.10719,2.49572 6.17211,3.91031 8.49256,3.91968 1.24496,0.005 4.51357,1.11596 7.26357,2.46873 3.85757,1.89761 4.42879,2.44378 2.5,2.39041 -1.375,-0.0381 -4.08326,-0.44529 -6.01836,-0.90498 z m -101.52276,-2.02983 c -0.36253,-0.58659 -0.4085,-1.31719 -0.10214,-1.62354 0.82264,-0.82264 3.64326,0.46152 3.64326,1.65869 0,1.35725 -2.69711,1.33048 -3.54112,-0.0351 z m 108.79112,-1.65197 c -0.6875,-0.24651 -1.25,-1.3406 -1.25,-2.4313 0,-1.56175 0.56789,-1.91586 2.67288,-1.66666 1.47009,0.17403 2.84743,0.84845 3.06077,1.49872 0.46093,1.40496 -2.70149,3.23826 -4.48365,2.59924 z m -101.79112,-1.34807 c -1.08933,-1.76258 0.059,-2.0097 2.11412,-0.45494 1.69187,1.27997 1.72067,1.46174 0.23602,1.48967 -0.93004,0.0175 -1.9876,-0.44814 -2.35014,-1.03473 z m 62.47699,-1.51074 c -1.15399,-1.39047 -0.91113,-1.53852 2.05054,-1.25 1.84776,0.18 3.54422,0.88977 3.76991,1.57727 0.60378,1.83925 -4.24884,1.5664 -5.82045,-0.32727 z m 40.06413,-8.92273 c 0,-1.03216 1.01364,-1.49008 3.25,-1.4682 3.0742,0.0301 3.145,0.11123 1.30887,1.5 -2.49986,1.89081 -4.55887,1.87644 -4.55887,-0.0318 z m -81.49769,-2.10387 c -2.19873,-0.80462 -4.67373,-2.18021 -5.5,-3.05688 -1.62173,-1.72065 -0.83903,-1.65266 9.49769,0.82502 2.2,0.52733 5.2375,1.20717 6.75,1.51076 1.5125,0.30358 2.75,0.95089 2.75,1.43847 0,1.38656 -9.06496,0.90478 -13.49769,-0.71737 z m -49.50231,-5.39613 c -0.98885,-0.61115 -1.14995,-1.25005 -0.48328,-1.91672 0.6204,-0.6204 1.56305,-0.65201 2.48328,-0.0833 0.98885,0.61115 1.14995,1.25005 0.48328,1.91672 -0.6204,0.6204 -1.56305,0.65201 -2.48328,0.0833 z m 26.24988,-1.93395 c -3.94016,-2.85424 -6.01057,-5.06605 -4.74218,-5.06605 0.34416,0 2.10069,1.125 3.90341,2.5 1.80272,1.375 3.7426,2.5 4.31084,2.5 0.56824,0 1.59336,0.675 2.27805,1.5 2.20444,2.65619 -1.31567,1.77835 -5.75012,-1.43395 z m 45.75012,2.14023 c 0,-0.43655 2.8125,-1.37312 6.25,-2.08126 3.4375,-0.70814 8.42138,-2.1401 11.07529,-3.18214 6.59327,-2.5888 5.60223,-0.29693 -1.39862,3.23444 -5.25982,2.65316 -15.92667,4.01205 -15.92667,2.02896 z m -66,-3.70628 c 0,-0.91667 0.48375,-1.50542 1.075,-1.30833 0.59125,0.19708 1.075,0.78583 1.075,1.30833 0,0.5225 -0.48375,1.11125 -1.075,1.30833 -0.59125,0.19709 -1.075,-0.39166 -1.075,-1.30833 z m 26.5,-2.5 c -0.33992,-0.55 0.30852,-1 1.44098,-1 1.13246,0 2.05902,0.45 2.05902,1 0,0.55 -0.64844,1 -1.44098,1 -0.79254,0 -1.7191,-0.45 -2.05902,-1 z m 69.5,-1.89159 c 0,-0.49038 1.2375,-1.19277 2.75,-1.56087 1.5125,-0.3681 4.42785,-1.76689 6.47856,-3.10841 4.74593,-3.10467 5.74381,-3.10307 2.82437,0.005 -3.73956,3.98011 -12.05293,7.19757 -12.05293,4.66428 z m 49,-1.10841 c -1.0668,-0.68942 0.12524,-0.9738 4.12756,-0.98469 3.76707,-0.0102 6.03911,-0.51121 6.87244,-1.51531 0.7748,-0.93357 2.97346,-1.5 5.82244,-1.5 6.64992,0 4.06105,1.87319 -4.96888,3.59527 -8.65332,1.65025 -9.86238,1.69153 -11.85356,0.40473 z m 18.22917,-9.1875 c 0.61807,-1.85422 2.77083,-2.16176 2.77083,-0.39583 0,0.87083 -0.7125,1.58333 -1.58333,1.58333 -0.87084,0 -1.40521,-0.53438 -1.1875,-1.1875 z M 266.6176,339.83143 c -4.44684,-1.79434 2.92847,-3.19882 8.69645,-1.65606 2.26579,0.60603 2.30271,0.7106 0.5,1.41606 -2.2056,0.86313 -7.32132,0.99663 -9.19645,0.24 z m -139.25,-7.35992 c 0,-0.56221 1.83071,-4.66329 4.06824,-9.11352 4.72572,-9.399 9.93176,-22.54032 9.93176,-25.07022 0,-1.07494 -2.80063,-3.56946 -7.25,-6.45758 -9.47403,-6.14966 -29.11254,-25.79491 -35.346663,-35.35878 -6.71351,-10.29931 -16.40334,-30.27263 -16.40334,-33.81163 0,-0.97134 -0.44809,-2.21416 -0.99575,-2.76182 -0.54766,-0.54766 -1.15058,-2.32516 -1.33982,-3.95 -0.18925,-1.62484 -0.84131,-4.52925 -1.44903,-6.45425 -1.79062,-5.67192 -4.2154,-24.4539 -4.2154,-32.65193 0,-14.29972 3.94712,-35.31841 9.27378,-49.38348 11.81172,-31.188962 38.291783,-59.881788 67.549963,-73.194677 16.29189,-7.413045 25.87454,-10.01433 45.21805,-12.27479 11.62711,-1.358729 14.31929,-1.355296 26.20821,0.03342 16.13572,1.884774 22.24849,3.355251 35.46297,8.5309 31.38936,12.294122 56.90328,35.689663 71.76637,65.807747 9.91519,20.09183 13.71735,36.56452 13.76419,59.63282 0.0447,21.99676 -3.63197,40.1726 -11.68949,57.78812 -1.40472,3.07105 -2.55404,5.90757 -2.55404,6.3034 0,0.39583 -1.125,2.19464 -2.5,3.99736 -1.375,1.80272 -2.5,3.82772 -2.5,4.5 0,0.67228 -1.125,2.69728 -2.5,4.5 -1.375,1.80272 -2.5,3.54837 -2.5,3.87923 0,1.39746 -13.71305,17.02089 -19.8443,22.60882 -13.37892,12.19337 -32.6898,23.28828 -49.32298,28.33813 -16.42754,4.98742 -22.42941,5.871 -40.33272,5.93766 -18.89406,0.0704 -28.35478,-1.34169 -43.67354,-6.51841 -4.84309,-1.63664 -9.59781,-2.72243 -10.56604,-2.41285 -0.96823,0.30957 -4.01042,4.01371 -6.76042,8.23143 -2.75,4.21771 -6.97102,9.86495 -9.38004,12.5494 -5.47349,6.0993 -12.11996,9.81492 -12.11996,6.7755 z m 36.02984,-47.03628 c 2.55743,-5.013 17.29586,-28.29894 20.28166,-32.04399 1.20368,-1.50974 3.5385,-4.64554 5.1885,-6.96843 1.65,-2.3229 5.5875,-7.34802 8.75,-11.16693 5.89804,-7.12226 7.16005,-9.60606 4,-7.87252 -8.83594,4.8472 -39.81859,48.25185 -41.65818,58.36035 -0.91231,5.01311 0.8016,4.85933 3.43802,-0.30848 z m -16.83622,-11.19152 c 0.91171,-1.62292 1.26534,-8.38143 1.26885,-24.25 0.005,-22.96067 -0.74346,-30.18547 -6.00598,-57.96916 -3.00891,-15.88569 -3.10083,-26.07258 -0.3526,-39.07608 2.66425,-12.60608 4.16499,-17.09655 8.90723,-26.65186 6.93389,-13.97136 15.47854,-24.50297 26.69476,-32.902326 8.28861,-6.206994 26.90217,-15.281081 35.79412,-17.449585 11.66208,-2.844065 32.08721,-2.658457 42.88201,0.389679 9.35425,2.641367 17.01994,6.154133 21.02353,9.633932 1.59805,1.388974 3.51055,2.525407 4.25,2.525407 0.73945,0 1.35685,0.5625 1.37199,1.25 0.0151,0.6875 1.64689,2.375 3.62611,3.75 9.01332,6.261716 16.39717,17.646403 21.87449,33.726893 6.41311,18.82778 9.35803,37.78582 10.06177,64.77311 0.55299,21.20657 0.87644,24.49999 2.4061,24.49999 1.45267,0 4.09226,-4.49509 5.1249,-8.72743 4.04555,-16.581 4.92557,-35.73345 2.30993,-50.27256 -2.59423,-14.4201 -3.10549,-16.33371 -5.80971,-21.7451 -1.44162,-2.8848 -2.62112,-6.12074 -2.62112,-7.19098 0,-1.07024 -0.47776,-2.24116 -1.06168,-2.60204 -0.58393,-0.36089 -1.50325,-1.62495 -2.04294,-2.80902 C 312.65596,115.23284 303.9525,104.36271 293.3144,94.4851 287.69222,89.264839 282.59171,84.512697 281.97993,83.924783 279.3945,81.440216 269.87018,75.212318 264.57657,72.544827 249.74236,65.069758 237.02649,61.392784 219.1748,59.416265 c -11.33475,-1.254972 -22.46511,-0.443864 -37.3072,2.718707 -18.77244,4.000055 -39.57293,15.246782 -55.36009,29.93295 -6.90772,6.425971 -20.10628,22.178008 -20.16773,24.069498 -0.0153,0.47097 -1.3653,2.62396 -3,4.78444 -1.6347,2.16048 -2.97218,4.49916 -2.97218,5.19708 0,0.69793 -1.012503,3.20526 -2.250003,5.57187 -2.49914,4.77937 -4.92133,12.23069 -6.92491,21.30291 -1.81028,8.19695 -1.77974,40.01053 0.0461,47.99999 6.50189,28.45122 21.351313,52.0573 44.244093,70.33475 7.10078,5.66921 9.21824,6.22641 11.07836,2.91525 z M 285.70028,171.61033 c 5.8577,-8.76919 10.61404,-18.35938 12.45681,-25.11661 2.41176,-8.84365 2.69585,-23.46907 0.58273,-30 -4.0424,-12.49369 -15.69965,-25.787236 -25.87222,-29.503809 -2.75,-1.00472 -5.4275,-2.202385 -5.95,-2.661478 -0.5225,-0.459094 -3.50332,-0.834716 -6.62405,-0.834716 -10.35863,0 -17.72987,5.765928 -22.8257,17.854713 -2.62452,6.22614 -3.10025,8.62421 -3.10025,15.62788 0,5.18215 0.58377,9.71986 1.56248,12.14529 6.78823,16.82256 11.4366,20.33675 28.16071,21.28964 12.79795,0.72918 14.42052,1.92117 15.08305,11.08048 0.38904,5.37849 -0.86254,15.17421 -2.53662,19.85327 -1.11809,3.1251 4.51355,-2.92387 9.06306,-9.73466 z m -81.50004,-2.05797 c 3.275,-4.07531 4.09548,-7.08225 1.91736,-7.02684 -2.99741,0.0763 -6.75,5.02549 -6.75,8.90246 0,3.04011 1.28215,2.54248 4.83264,-1.87562 z m -57.83264,-7.99962 c 0,-0.51754 -0.45,-1.2191 -1,-1.55902 -0.55,-0.33992 -1,0.0835 -1,0.94098 0,0.85746 0.45,1.55902 1,1.55902 0.55,0 1,-0.42344 1,-0.94098 z m 283.48475,170.9163 c -0.40754,-0.65942 -0.12083,-1.5842 0.63713,-2.05509 1.66304,-1.03315 2.55953,0.79835 1.10349,2.25439 -0.66618,0.66618 -1.24681,0.5997 -1.74062,-0.1993 z m -33.02587,-6.04186 c -1.0006,-1.61901 0.0227,-2.10168 2.91621,-1.37546 1.4361,0.36043 2.36264,1.05733 2.05898,1.54866 -0.76619,1.23972 -4.1753,1.12104 -4.97519,-0.1732 z"
               id="path3015"
               inkscape:connector-curvature="0"
               sodipodi:nodetypes="sssssssssscscsscssscscsccsccssssssssssssssssssssssscscscsssssssssssscscssssssssscsscsssssssssssssssssssssssssssssssssssssssssssssssssscssssssssscsssssssssssssssssssssssccsssssssssssssscsssssssscssssss" />
            <path
               style="fill:#585858"
               d="m 317.75573,390.3127 c -0.33763,-0.54629 -0.14332,-1.4638 0.43178,-2.0389 1.15284,-1.15284 4.18009,-0.37657 4.18009,1.07189 0,1.32612 -3.88631,2.14099 -4.61187,0.96701 z m 26.18714,-6.41712 c -2.59178,-1.97898 -4.4518,-3.85867 -4.13337,-4.1771 0.31843,-0.31843 1.83639,0.62573 3.37325,2.09813 3.16349,3.03082 4.82109,3.31627 7.12895,1.22769 1.09736,-0.9931 2.06663,-1.14819 3.07874,-0.49264 1.23596,0.80054 1.06894,1.27851 -1.02284,2.92717 -1.375,1.08373 -2.77279,1.98041 -3.1062,1.99264 -0.33341,0.0122 -2.72675,-1.59692 -5.31853,-3.57589 z m -19.9086,-0.0685 c -2.45135,-2.45134 1.80087,-3.2033 4.8922,-0.86513 1.84303,1.39399 1.7853,1.4698 -1.1422,1.5 -1.69584,0.0175 -3.38334,-0.2682 -3.75,-0.63487 z m 62.31497,-1.37003 c -5.28941,-1.25651 -12.33379,-4.47776 -13.8883,-6.35084 -1.81784,-2.19035 -0.59041,-3.32294 1.65053,-1.523 3.10719,2.49572 6.17211,3.91031 8.49256,3.91968 1.24496,0.005 4.51357,1.11596 7.26357,2.46873 3.85757,1.89761 4.42879,2.44378 2.5,2.39041 -1.375,-0.0381 -4.08326,-0.44529 -6.01836,-0.90498 z m -101.52276,-2.02983 c -0.36253,-0.58659 -0.4085,-1.31719 -0.10214,-1.62354 0.82264,-0.82264 3.64326,0.46152 3.64326,1.65869 0,1.35725 -2.69711,1.33048 -3.54112,-0.0351 z m 108.79112,-1.65197 c -0.6875,-0.24651 -1.25,-1.3406 -1.25,-2.4313 0,-1.56175 0.56789,-1.91586 2.67288,-1.66666 1.47009,0.17403 2.84743,0.84845 3.06077,1.49872 0.46093,1.40496 -2.70149,3.23826 -4.48365,2.59924 z m -101.79112,-1.34807 c -1.08933,-1.76258 0.059,-2.0097 2.11412,-0.45494 1.69187,1.27997 1.72067,1.46174 0.23602,1.48967 -0.93004,0.0175 -1.9876,-0.44814 -2.35014,-1.03473 z m 62.47699,-1.51074 c -1.15399,-1.39047 -0.91113,-1.53852 2.05054,-1.25 1.84776,0.18 3.54422,0.88977 3.76991,1.57727 0.60378,1.83925 -4.24884,1.5664 -5.82045,-0.32727 z m 40.06413,-8.92273 c 0,-1.03216 1.01364,-1.49008 3.25,-1.4682 3.0742,0.0301 3.145,0.11123 1.30887,1.5 -2.49986,1.89081 -4.55887,1.87644 -4.55887,-0.0318 z m -81.49769,-2.10387 c -2.19873,-0.80462 -4.67373,-2.18021 -5.5,-3.05688 -1.62173,-1.72065 -0.83903,-1.65266 9.49769,0.82502 2.2,0.52733 5.2375,1.20717 6.75,1.51076 1.5125,0.30358 2.75,0.95089 2.75,1.43847 0,1.38656 -9.06496,0.90478 -13.49769,-0.71737 z m -49.50231,-5.39613 c -0.98885,-0.61115 -1.14995,-1.25005 -0.48328,-1.91672 0.6204,-0.6204 1.56305,-0.65201 2.48328,-0.0833 0.98885,0.61115 1.14995,1.25005 0.48328,1.91672 -0.6204,0.6204 -1.56305,0.65201 -2.48328,0.0833 z m 26.24988,-1.93395 c -3.94016,-2.85424 -6.01057,-5.06605 -4.74218,-5.06605 0.34416,0 2.10069,1.125 3.90341,2.5 1.80272,1.375 3.7426,2.5 4.31084,2.5 0.56824,0 1.59336,0.675 2.27805,1.5 2.20444,2.65619 -1.31567,1.77835 -5.75012,-1.43395 z m 45.75012,2.14023 c 0,-0.43655 2.8125,-1.37312 6.25,-2.08126 3.4375,-0.70814 8.42138,-2.1401 11.07529,-3.18214 6.59327,-2.5888 5.60223,-0.29693 -1.39862,3.23444 -5.25982,2.65316 -15.92667,4.01205 -15.92667,2.02896 z m -66,-3.70628 c 0,-0.91667 0.48375,-1.50542 1.075,-1.30833 0.59125,0.19708 1.075,0.78583 1.075,1.30833 0,0.5225 -0.48375,1.11125 -1.075,1.30833 -0.59125,0.19709 -1.075,-0.39166 -1.075,-1.30833 z m 26.5,-2.5 c -0.33992,-0.55 0.30852,-1 1.44098,-1 1.13246,0 2.05902,0.45 2.05902,1 0,0.55 -0.64844,1 -1.44098,1 -0.79254,0 -1.7191,-0.45 -2.05902,-1 z m 69.5,-1.89159 c 0,-0.49038 1.2375,-1.19277 2.75,-1.56087 1.5125,-0.3681 4.42785,-1.76689 6.47856,-3.10841 4.74593,-3.10467 5.74381,-3.10307 2.82437,0.005 -3.73956,3.98011 -12.05293,7.19757 -12.05293,4.66428 z m 49,-1.10841 c -1.0668,-0.68942 0.12524,-0.9738 4.12756,-0.98469 3.76707,-0.0102 6.03911,-0.51121 6.87244,-1.51531 0.7748,-0.93357 2.97346,-1.5 5.82244,-1.5 6.64992,0 4.06105,1.87319 -4.96888,3.59527 -8.65332,1.65025 -9.86238,1.69153 -11.85356,0.40473 z m 18.22917,-9.1875 c 0.61807,-1.85422 2.77083,-2.16176 2.77083,-0.39583 0,0.87083 -0.7125,1.58333 -1.58333,1.58333 -0.87084,0 -1.40521,-0.53438 -1.1875,-1.1875 z M 266.6176,339.83143 c -4.44684,-1.79434 2.92847,-3.19882 8.69645,-1.65606 2.26579,0.60603 2.30271,0.7106 0.5,1.41606 -2.2056,0.86313 -7.32132,0.99663 -9.19645,0.24 z m -139.25,-7.35992 c 0,-0.56221 1.83071,-4.66329 4.06824,-9.11352 4.72572,-9.399 9.93176,-22.54032 9.93176,-25.07022 0,-1.07494 -2.80063,-3.56946 -7.25,-6.45758 -9.47403,-6.14966 -29.11254,-25.79491 -35.346663,-35.35878 -6.71351,-10.29931 -16.40334,-30.27263 -16.40334,-33.81163 0,-0.97134 -0.44809,-2.21416 -0.99575,-2.76182 -0.54766,-0.54766 -1.15058,-2.32516 -1.33982,-3.95 -0.18925,-1.62484 -0.84131,-4.52925 -1.44903,-6.45425 -1.79062,-5.67192 -4.2154,-24.4539 -4.2154,-32.65193 0,-14.29972 3.94712,-35.31841 9.27378,-49.38348 11.81172,-31.188962 38.291783,-59.881788 67.549963,-73.194677 16.29189,-7.413045 25.87454,-10.01433 45.21805,-12.27479 11.62711,-1.358729 14.31929,-1.355296 26.20821,0.03342 16.13572,1.884774 22.24849,3.355251 35.46297,8.5309 31.38936,12.294122 56.90328,35.689663 71.76637,65.807747 9.91519,20.09183 13.71735,36.56452 13.76419,59.63282 0.0447,21.99676 -3.63197,40.1726 -11.68949,57.78812 -1.40472,3.07105 -2.55404,5.90757 -2.55404,6.3034 0,0.39583 -1.125,2.19464 -2.5,3.99736 -1.375,1.80272 -2.5,3.82772 -2.5,4.5 0,0.67228 -1.125,2.69728 -2.5,4.5 -1.375,1.80272 -2.5,3.54837 -2.5,3.87923 0,1.39746 -13.71305,17.02089 -19.8443,22.60882 -13.37892,12.19337 -32.6898,23.28828 -49.32298,28.33813 -16.42754,4.98742 -22.42941,5.871 -40.33272,5.93766 -18.89406,0.0704 -28.35478,-1.34169 -43.67354,-6.51841 -4.84309,-1.63664 -9.59781,-2.72243 -10.56604,-2.41285 -0.96823,0.30957 -4.01042,4.01371 -6.76042,8.23143 -2.75,4.21771 -6.97102,9.86495 -9.38004,12.5494 -5.47349,6.0993 -12.11996,9.81492 -12.11996,6.7755 z m 37.33975,-45.80658 c 1.48003,-3.20584 6.72128,-11.86834 11.64724,-19.25 11.82171,-17.71514 11.28997,-16.9735 20.17586,-28.1405 9.24884,-11.62312 10.42156,-13.59631 8.95333,-15.06454 -3.45785,-3.45785 -24.05008,20.39592 -39.76235,46.06019 -8.6401,14.11266 -10.66964,22.22363 -5.56082,22.22363 1.28768,0 2.67956,-1.78435 4.54674,-5.82878 z m -18.14613,-12.42122 c 0.91171,-1.62292 1.26534,-8.38143 1.26885,-24.25 0.005,-22.96067 -0.74346,-30.18547 -6.00598,-57.96916 -3.00891,-15.88569 -3.10083,-26.07258 -0.3526,-39.07608 2.66425,-12.60608 4.16499,-17.09655 8.90723,-26.65186 6.93389,-13.97136 15.47854,-24.50297 26.69476,-32.902326 8.07807,-6.04933 26.90523,-15.268012 35.29412,-17.281697 20.67555,-4.963 47.2838,-1.712653 61.11893,7.46602 5.35858,3.555058 4.94513,3.613701 -2.92665,0.41511 -7.72665,-3.139621 -14.02337,-3.224089 -19.9433,-0.267534 -6.74439,3.368313 -11.87492,9.271025 -15.00587,17.264347 -2.34728,5.99262 -2.74311,8.46013 -2.74311,17.09977 0,5.68221 0.47123,10.71017 1.0778,11.5 0.5928,0.77188 1.86272,3.52837 2.82206,6.12554 2.23073,6.03912 9.75173,12.94309 16.5068,15.15256 2.7638,0.90399 8.24042,1.62532 12.34011,1.62532 10.85445,0 11.2734,0.49438 11.16484,13.17496 -0.0746,8.70903 -0.494,11.30325 -2.67994,16.57504 -3.4777,8.3871 -1.55605,8.21345 5.5332,-0.5 15.16722,-18.64215 22.00122,-34.6557 22.08502,-51.75 0.0545,-11.10531 -1.8615,-17.36411 -8.31328,-27.15695 -5.21387,-7.913876 -4.42376,-8.948907 1.18573,-1.55328 14.53677,19.16548 22.28637,49.24857 23.36756,90.71023 0.55299,21.20657 0.87644,24.49999 2.4061,24.49999 1.45267,0 4.09226,-4.49509 5.1249,-8.72743 4.04555,-16.581 4.92557,-35.73345 2.30993,-50.27256 -2.59423,-14.4201 -3.10549,-16.33371 -5.80971,-21.7451 -1.44162,-2.8848 -2.62112,-6.12074 -2.62112,-7.19098 0,-1.07024 -0.47776,-2.24116 -1.06168,-2.60204 -0.58393,-0.36089 -1.50325,-1.62495 -2.04294,-2.80902 C 312.65596,115.23284 303.9525,104.36271 293.3144,94.4851 287.69222,89.264839 282.59171,84.512697 281.97993,83.924783 279.3945,81.440216 269.87018,75.212318 264.57657,72.544827 249.74236,65.069758 237.02649,61.392784 219.1748,59.416265 c -11.33475,-1.254972 -22.46511,-0.443864 -37.3072,2.718707 -18.77244,4.000055 -39.57293,15.246782 -55.36009,29.93295 -6.90772,6.425971 -20.10628,22.178008 -20.16773,24.069498 -0.0153,0.47097 -1.3653,2.62396 -3,4.78444 -1.6347,2.16048 -2.97218,4.49916 -2.97218,5.19708 0,0.69793 -1.012503,3.20526 -2.250003,5.57187 -2.49914,4.77937 -4.92133,12.23069 -6.92491,21.30291 -1.81028,8.19695 -1.77974,40.01053 0.0461,47.99999 6.50189,28.45122 21.351313,52.0573 44.244093,70.33475 7.10078,5.66921 9.21824,6.22641 11.07836,2.91525 z M 280.8676,89.493717 c -0.33992,-0.55 -0.14148,-1 0.44098,-1 0.58246,0 1.05902,0.45 1.05902,1 0,0.55 -0.19844,1 -0.44098,1 -0.24254,0 -0.7191,-0.45 -1.05902,-1 z m -76.66736,80.058643 c 3.275,-4.07531 4.09548,-7.08225 1.91736,-7.02684 -2.99741,0.0763 -6.75,5.02549 -6.75,8.90246 0,3.04011 1.28215,2.54248 4.83264,-1.87562 z m -57.83264,-7.99962 c 0,-0.51754 -0.45,-1.2191 -1,-1.55902 -0.55,-0.33992 -1,0.0835 -1,0.94098 0,0.85746 0.45,1.55902 1,1.55902 0.55,0 1,-0.42344 1,-0.94098 z m 283.48475,170.9163 c -0.40754,-0.65942 -0.12083,-1.5842 0.63713,-2.05509 1.66304,-1.03315 2.55953,0.79835 1.10349,2.25439 -0.66618,0.66618 -1.24681,0.5997 -1.74062,-0.1993 z m -33.02587,-6.04186 c -1.0006,-1.61901 0.0227,-2.10168 2.91621,-1.37546 1.4361,0.36043 2.36264,1.05733 2.05898,1.54866 -0.76619,1.23972 -4.1753,1.12104 -4.97519,-0.1732 z"
               id="path3013"
               inkscape:connector-curvature="0"
               sodipodi:nodetypes="sssssssssscscsscssscscsccsccssssssssssssssssssssssscscscsssssssssssscscssssssssscsscsssssssssssssssssssssssssssssssssssssssssssssssssscssssssssssssssssssssssssssssssssssssssssssccsssssscsssssssscssssss" />
            <path
               style="fill:#033497"
               d="m 133.65525,324.24371 c 0.27589,-0.6875 2.57229,-6.28113 5.1031,-12.43028 4.30639,-10.46329 4.5908,-11.71383 4.43485,-19.5 -0.13184,-6.58302 0.23427,-9.02442 1.75389,-11.6956 1.05628,-1.85674 2.54456,-4.52143 3.30729,-5.92155 1.96374,-3.60475 2.6609,-30.44218 1.2263,-47.20661 -0.6352,-7.42278 -2.22938,-19.34596 -3.54263,-26.49596 -3.83646,-20.88771 -4.57045,-25.92478 -4.57045,-31.36529 0,-5.75786 0.93179,-6.37212 3.76538,-2.48223 2.19155,3.00852 4.23462,2.45542 4.23462,-1.14639 0,-3.90178 -1.88433,-7.66307 -4.13375,-8.25131 -1.88195,-0.49214 -2.0487,-1.06642 -1.54489,-5.32029 2.0472,-17.28546 16.24525,-42.75909 30.28857,-54.342676 6.72095,-5.543754 21.40051,-14.056262 30.39007,-17.62286 14.26308,-5.658858 38.26848,-6.503829 52.75,-1.856757 4.08937,1.312265 4.20763,2.88781 0.21676,2.88781 -4.3729,0 -12.26523,4.325564 -15.86868,8.697178 -1.70735,2.071316 -4.45288,7.005525 -6.10118,10.964905 -2.57196,6.17814 -2.9969,8.47165 -2.9969,16.17519 0,7.82306 0.3858,9.83617 3.00293,15.66925 1.65161,3.68113 3.94997,8.02296 5.10747,9.64852 4.71221,6.6177 16.57455,11.31799 25.90244,10.2635 4.62585,-0.52294 5.91301,-0.29861 8,1.39426 2.34431,1.90159 2.48109,2.55361 2.38151,11.35233 -0.0919,8.11959 -0.52643,10.34208 -3.33777,17.07155 -1.77767,4.25518 -3.01816,8.30518 -2.75665,9 0.69672,1.85118 10.91657,-9.29738 17.17585,-18.73668 5.67135,-8.55269 10.54689,-17.8125 12.37336,-23.5 2.37873,-7.40716 3.94696,-19.6494 3.08736,-24.10112 -1.1506,-5.95877 -1.16528,-10.53863 -0.0299,-9.34888 1.48423,1.55538 7.84871,21.3553 9.528,29.64167 3.15925,15.58915 4.76648,30.84662 5.5102,52.30833 l 0.76236,21.99999 -4.26559,9 c -10.50173,22.15768 -31.83744,43.10513 -54.90582,53.90667 -10.40443,4.87177 -23.86822,9.01689 -34.22725,10.53761 -13.95809,2.04905 -36.58021,0.67036 -46.30845,-2.82224 -1.375,-0.49364 -4.43629,-1.42324 -6.80287,-2.06577 -5.0489,-1.37078 -5.9219,-2.90043 -3.8498,-6.74553 0.83308,-1.54591 2.20702,-4.29536 3.0532,-6.1099 2.44601,-5.24523 15.91056,-24.92562 23.31856,-34.08347 3.7295,-4.61045 7.84622,-9.88579 9.14827,-11.72298 2.37641,-3.3531 2.32498,-6.39439 -0.10813,-6.39439 -4.27174,0 -18.92642,16.97186 -35.40224,41 -1.69708,2.475 -4.94667,8.02576 -7.2213,12.33502 -4.49591,8.51746 -5.26578,13.75877 -2.47406,16.84358 1.57196,1.73699 1.38727,2.09201 -3.42238,6.57874 -2.79621,2.60846 -7.19501,7.89266 -9.77513,11.74266 -2.58011,3.85 -6.07832,8.4625 -7.77378,10.25 -3.12033,3.2897 -5.32152,4.28963 -4.40269,2 z m 71.67883,-153.39912 c 2.76843,-3.65702 5.03352,-7.01619 5.03352,-7.46482 0,-1.32976 -3.93905,-3.03637 -5.27067,-2.28353 -3.03644,1.71667 -5.76097,4.96333 -6.79539,8.09764 -1.17546,3.56168 -0.57513,8.29984 1.05159,8.29984 0.52108,0 3.21251,-2.99211 5.98095,-6.64913 z"
               id="path3011"
               inkscape:connector-curvature="0" />
            <path
               style="fill:#030203"
               d="m 133.65525,324.24371 c 0.27589,-0.6875 2.57229,-6.28113 5.1031,-12.43028 4.30639,-10.46329 4.5908,-11.71383 4.43485,-19.5 -0.13184,-6.58302 0.23427,-9.02442 1.75389,-11.6956 1.05628,-1.85674 2.54456,-4.52143 3.30729,-5.92155 1.96374,-3.60475 2.6609,-30.44218 1.2263,-47.20661 -0.6352,-7.42278 -2.22938,-19.34596 -3.54263,-26.49596 -3.83646,-20.88771 -4.57045,-25.92478 -4.57045,-31.36529 0,-5.75786 0.93179,-6.37212 3.76538,-2.48223 4.8458,6.65222 5.59762,-3.48335 0.79652,-10.7383 -2.58148,-3.90088 -2.59323,-4.00381 -1.1044,-9.67849 5.06862,-19.31907 16.27961,-38.02577 29.15243,-48.643876 6.72095,-5.543754 21.40051,-14.056262 30.39007,-17.62286 14.26308,-5.658858 38.26848,-6.503829 52.75,-1.856757 4.08937,1.312265 4.20763,2.88781 0.21676,2.88781 -4.3729,0 -12.26523,4.325564 -15.86868,8.697178 -1.70735,2.071316 -4.45288,7.005525 -6.10118,10.964905 -2.57196,6.17814 -2.9969,8.47165 -2.9969,16.17519 0,7.82306 0.3858,9.83617 3.00293,15.66925 1.65161,3.68113 3.94997,8.02296 5.10747,9.64852 4.71221,6.6177 16.57455,11.31799 25.90244,10.2635 4.62585,-0.52294 5.91301,-0.29861 8,1.39426 2.34358,1.901 2.48133,2.55634 2.38621,11.35233 -0.0874,8.08644 -0.5221,10.33537 -3.25,16.81593 -1.73198,4.11459 -3.14905,7.99238 -3.14905,8.61732 0,1.79593 -14.80061,15.46466 -25.1063,23.1863 -5.16654,3.87107 -15.0187,10.517 -21.8937,14.76873 -6.875,4.25172 -14.975,9.63344 -18,11.95937 -7.06378,5.43137 -18.76685,17.72686 -26.89907,28.26073 -6.1157,7.92182 -8.64065,10.03671 -6.04363,5.06213 2.77729,-5.31989 16.34949,-24.91496 22.66179,-32.71828 3.7295,-4.61045 7.84622,-9.88579 9.14827,-11.72298 2.37641,-3.3531 2.32498,-6.39439 -0.10813,-6.39439 -4.27174,0 -18.92642,16.97186 -35.40224,41 -1.69708,2.475 -4.94666,8.02576 -7.2213,12.33502 -4.49591,8.51746 -5.26578,13.75877 -2.47406,16.84358 1.57196,1.73699 1.38727,2.09201 -3.42238,6.57874 -2.79621,2.60846 -7.19501,7.89266 -9.77513,11.74266 -2.58011,3.85 -6.07832,8.4625 -7.77378,10.25 -3.12033,3.2897 -5.32152,4.28963 -4.40269,2 z m 68.09427,-149.0681 c 8.06383,-8.58115 11.63742,-17.84315 7.11808,-18.44862 -5.60328,-0.75069 -12.09231,7.52878 -13.19451,16.83512 -0.506,4.27245 -0.34733,4.93161 1.18714,4.93161 0.97417,0 3.17435,-1.49315 4.88929,-3.31811 z M 168.3676,281.61615 c 0,-0.48265 0.74867,-1.49515 1.66372,-2.25 1.5086,-1.24448 1.55194,-1.16266 0.46482,0.87756 -1.23991,2.32696 -2.12854,2.89993 -2.12854,1.37244 z"
               id="path3009"
               inkscape:connector-curvature="0" />
          </g>
          <text
             sodipodi:linespacing="125%"
             id="text3023"
             y="201.81374"
             x="-475.78186"
             style="font-size:40px;font-style:normal;font-weight:normal;line-height:125%;letter-spacing:0px;word-spacing:0px;fill:#9d9d9c;fill-opacity:1;stroke:none;font-family:Sans"
             xml:space="preserve"><tspan
               style="font-style:normal;font-variant:normal;font-weight:bold;font-stretch:normal;fill:#9d9d9c;fill-opacity:1;font-family:Comfortaa;-inkscape-font-specification:Comfortaa Bold"
               y="201.81374"
               x="-475.78186"
               id="tspan3025"
               sodipodi:role="line" /></text>
        </g>
      </g>
    </g>
  </g>
</svg>
